# xmcd
#
# Track frame offsets:
# 150
# 18194
# 48374
# 73038
# 104372
# 132910
# 146916
# 167928
#
# Disc length: 2522 seconds
#
#
# Revision: 0
# Processed by: cddbd v1.5.1PL2 Copyright (c) Steve Scherf et al.
# Submitted via: FreeRIP 2.945 
#
DISCID=7109d808
DTITLE=Exuma - Exuma,Vol.2
DYEAR=2003
DGENRE=Acoustic
TTITLE0=Damn Fool
TTITLE1=Baal
TTITLE2=Paul Somon Non tooth
TTITLE3=Fire in the Hole
TTITLE4=A Place Called Eart
TTITLE5=We Got to Go
TTITLE6=African Rythm
TTITLE7=Zando
EXTD=
EXTT0=
EXTT1=
EXTT2=
EXTT3=
EXTT4=
EXTT5=
EXTT6=
EXTT7=
PLAYORDER=
